<?xml version="1.0" encoding="UTF-8"?>
<svg id="ORANGE_BACKGROUNDS" width="80" height="80" enable-background="new 0 0 96 96" version="1.1" viewBox="0 0 80 80" xml:space="preserve" xmlns="http://www.w3.org/2000/svg" xmlns:osb="http://www.openswatchbook.org/uri/2009/osb" xmlns:xlink="http://www.w3.org/1999/xlink"><defs>
	

		
		
		
		
	
	
<linearGradient id="HIGHLIGHT_RIM_3_-8" x1="39" x2="39" y1="-7.7793" y2="133.27" gradientTransform="translate(1,17)" gradientUnits="userSpaceOnUse"><stop stop-color="#fff" offset="0"/><stop offset="1"/></linearGradient><linearGradient id="linearGradient3021-7" x1="39" x2="39" y2="78.001" gradientTransform="translate(1,17)" gradientUnits="userSpaceOnUse"><stop stop-color="#00C4D7" offset="0"/><stop stop-color="#00ABC7" offset=".1885"/><stop stop-color="#006D9D" offset=".586"/><stop stop-color="#00568E" offset=".7212"/></linearGradient></defs>


<g transform="translate(0,-16)" display="none"><rect y="16" width="80" height="80" display="inline" fill-opacity="0"/></g><g transform="translate(0,-16)"><path id="BLUE2_1_" d="m79 56c0 28.893-10.105 39-39 39s-39-10.107-39-39c0-28.894 10.105-39 39-39s39 10.106 39 39z" fill="url(#linearGradient3021-7)"/><path d="m40 17c-28.894 0-39 10.106-39 39 0 28.892 10.106 39 39 39 28.896 0 39-10.108 39-39 0-28.894-10.104-39-39-39zm0 77.048c-28.429 0-38.025-9.602-38.025-38.048s9.596-38.047 38.025-38.047c28.43 0 38.025 9.601 38.025 38.047s-9.595 38.048-38.025 38.048z" fill="url(#HIGHLIGHT_RIM_3_-8)" fill-opacity=".25"/></g><g transform="translate(0,-16)"><g transform="matrix(2.1096 0 0 2.1096 14.685 -2139.9)"><path d="m5 1030.4c-1.1046 0-2 0.9-2 2v18c0 1.1 0.8954 2 2 2h14c1.105 0 2-0.9 2-2v-14l-6-6z" fill="#95a5a6"/><path d="m5 1029.4c-1.1046 0-2 0.9-2 2v18c0 1.1 0.8954 2 2 2h14c1.105 0 2-0.9 2-2v-14l-6-6z" fill="#bdc3c7"/><path d="m21 1035.4-6-6v4c0 1.1 0.895 2 2 2z" fill="#95a5a6"/><path transform="translate(0,1028.4)" d="m6 8v1h12v-1zm0 3v1h12v-1zm0 3v1h12v-1zm0 3v1h12v-1z" fill="#95a5a6"/></g></g></svg>
