<?xml version="1.0" encoding="UTF-8"?>
<svg id="ORANGE_BACKGROUNDS" width="80" height="80" enable-background="new 0 0 96 96" version="1.1" viewBox="0 0 80 80" xml:space="preserve" xmlns="http://www.w3.org/2000/svg" xmlns:osb="http://www.openswatchbook.org/uri/2009/osb" xmlns:xlink="http://www.w3.org/1999/xlink"><defs>
	

		
		
		
		
	
	
<linearGradient id="HIGHLIGHT_RIM_3_-86" x1="39" x2="39" y1="-7.7793" y2="133.27" gradientTransform="translate(1,17)" gradientUnits="userSpaceOnUse"><stop stop-color="#fff" offset="0"/><stop offset="1"/></linearGradient><linearGradient id="linearGradient3021-9" x1="39" x2="39" y2="78.001" gradientTransform="translate(1,17)" gradientUnits="userSpaceOnUse"><stop stop-color="#A5DB00" offset="0"/><stop stop-color="#8CCB00" offset=".2034"/><stop stop-color="#4EA100" offset=".6326"/><stop stop-color="#409800" offset=".7212"/></linearGradient></defs>


<g transform="translate(0,-16)" display="none"><rect y="16" width="80" height="80" display="inline" fill-opacity="0"/></g><g transform="translate(0,-16)"><path id="GREEN1_1_" d="m79 56c0 28.893-10.105 39-39 39s-39-10.107-39-39c0-28.894 10.105-39 39-39s39 10.106 39 39z" fill="url(#linearGradient3021-9)"/><path d="m40 17c-28.894 0-39 10.106-39 39 0 28.892 10.106 39 39 39 28.896 0 39-10.108 39-39 0-28.894-10.104-39-39-39zm0 77.048c-28.429 0-38.025-9.602-38.025-38.048s9.596-38.047 38.025-38.047c28.43 0 38.025 9.601 38.025 38.047s-9.595 38.048-38.025 38.048z" fill="url(#HIGHLIGHT_RIM_3_-86)" fill-opacity=".25"/></g><g transform="translate(0,-16)"><g transform="matrix(2.2544 0 0 2.2544 12.947 -2290.6)"><path d="m3 1033.4c-1.1046 0-2 0.9-2 2v12c0 1.1 0.8954 2 2 2h18c1.105 0 2-0.9 2-2v-12c0-1.1-0.895-2-2-2h-9z" fill="#7f8c8d"/><path d="m3 1032.4c-1.1046 0-2 0.9-2 2v12c0 1.1 0.8954 2 2 2h18c1.105 0 2-0.9 2-2v-12c0-1.1-0.895-2-2-2h-9z" fill="#bdc3c7"/><path d="m3 1048.4c-0.5523 0-1.0443-0.3-1.4062-0.6l10.406-10.4 10.406 10.4c-0.362 0.3-0.854 0.6-1.406 0.6h-18z" fill="#95a5a6"/><path transform="translate(0,1028.4)" d="m1.8438 5 10.156 12 10.156-12z" fill="#7f8c8d"/><path d="m3 1032.4c-0.5523 0-1.0443 0.2-1.4062 0.6l10.406 10.4 10.406-10.4c-0.362-0.4-0.854-0.6-1.406-0.6h-18z" fill="#ecf0f1"/></g></g></svg>
