<?xml version="1.0" encoding="UTF-8"?>
<svg id="ORANGE_BACKGROUNDS" width="80" height="80" enable-background="new 0 0 96 96" version="1.1" viewBox="0 0 80 80" xml:space="preserve" xmlns="http://www.w3.org/2000/svg" xmlns:osb="http://www.openswatchbook.org/uri/2009/osb" xmlns:xlink="http://www.w3.org/1999/xlink"><defs>
	

		
		
		
		
	
	
<linearGradient id="HIGHLIGHT_RIM_3_-4" x1="39" x2="39" y1="-7.7793" y2="133.27" gradientTransform="translate(1,17)" gradientUnits="userSpaceOnUse"><stop stop-color="#fff" offset="0"/><stop offset="1"/></linearGradient><linearGradient id="linearGradient3024" x1="39" x2="39" y2="78.001" gradientTransform="translate(1,17)" gradientUnits="userSpaceOnUse"><stop stop-color="#D1D4D5" offset="0"/><stop stop-color="#C8CCCD" offset=".1427"/><stop stop-color="#B0B5B7" offset=".3736"/><stop stop-color="#899093" offset=".6626"/><stop stop-color="#7D8488" offset=".7455"/></linearGradient><style>.cls-1{fill:#2e79bd;}.cls-2{fill:#2d3e50;}</style></defs>


<g transform="translate(0,-16)" display="none"><rect y="16" width="80" height="80" display="inline" fill-opacity="0"/></g><g transform="translate(0,-16)"><path id="GREY1_1_" d="m79 56c0 28.893-10.105 39-39 39s-39-10.107-39-39c0-28.894 10.105-39 39-39s39 10.106 39 39z" fill="url(#linearGradient3024)"/><path d="m40 17c-28.894 0-39 10.106-39 39 0 28.892 10.106 39 39 39 28.896 0 39-10.108 39-39 0-28.894-10.104-39-39-39zm0 77.048c-28.429 0-38.025-9.602-38.025-38.048s9.596-38.047 38.025-38.047c28.43 0 38.025 9.601 38.025 38.047s-9.595 38.048-38.025 38.048z" fill="url(#HIGHLIGHT_RIM_3_-4)" fill-opacity=".25"/></g><g transform="translate(0,-16)"><g transform="matrix(.44417 0 0 .44417 11.571 27.575)"><path class="cls-1" d="m65.769 84.917a14.569 14.569 0 0 0 16.064 6.6534 14.392 14.392 0 0 0 3.8712-1.6066 14.589 14.589 0 0 0 5.0492-5.0494 14.385 14.385 0 0 0 1.6067-3.8712 14.547 14.547 0 0 0-6.6559-16.063 14.389 14.389 0 0 0-3.8712-1.6066 14.541 14.541 0 0 0-16.064 21.544z"/><path class="cls-2" d="m119.58 70.982h-2.8566a38.785 38.785 0 0 0-6.6735-16.115l2.0219-2.022a6.4929 6.4929 0 0 0-9.1823-9.1823l-2.0219 2.022a38.722 38.722 0 0 0-16.111-6.6688v-2.8614a6.493 6.493 0 0 0-11.33-4.3315 9.5656 9.5656 0 0 1 1.2243 4.7071 9.706 9.706 0 0 1-7.6334 9.4698 32.638 32.638 0 0 1-2.4626 5.95 9.7231 9.7231 0 0 1 1.0759 2.291 26.223 26.223 0 0 1 6.1402-2.4069 26.673 26.673 0 0 1 12.985 0 26.167 26.167 0 0 1 7.0396 2.9216 26.49 26.49 0 0 1 12.104 29.212 26.167 26.167 0 0 1-2.9218 7.0398 26.533 26.533 0 0 1-9.1824 9.1824 26.167 26.167 0 0 1-7.0397 2.9216 26.449 26.449 0 0 1-30.613-36.493 9.6196 9.6196 0 0 1-2.9866-1.2707 33.262 33.262 0 0 1-5.9453 2.4625 9.7066 9.7066 0 0 1-9.4698 7.6288 9.6051 9.6051 0 0 1-4.4846-1.1038 6.4965 6.4965 0 0 0 5.6856 9.6322h2.8614a38.667 38.667 0 0 0 6.6734 16.111l-2.022 2.0219a6.4913 6.4913 0 1 0 9.1778 9.1824l2.022-2.022a38.782 38.782 0 0 0 16.115 6.6734v2.8567a6.4926 6.4926 0 0 0 12.985 0v-2.8614a38.722 38.722 0 0 0 16.111-6.6688l2.0219 2.022a6.4929 6.4929 0 0 0 9.1824-9.1824l-2.0219-2.0219a38.721 38.721 0 0 0 6.6688-16.111h2.8614a6.4926 6.4926 0 1 0 0-12.985z"/><path class="cls-1" d="m31.148 65.746a4.5913 4.5913 0 0 0 9.1826 0v-2.0234a27.383 27.383 0 0 0 11.393-4.716l1.4299 1.4299a4.5916 4.5916 0 0 0 6.4935-6.4934l-1.43-1.4299a27.382 27.382 0 0 0 4.716-11.393h2.0236a4.5914 4.5914 0 0 0 0-9.1827h-2.0203a27.425 27.425 0 0 0-4.7192-11.396l1.43-1.4299a4.5916 4.5916 0 0 0-6.4935-6.4934l-1.4299 1.4299a27.382 27.382 0 0 0-11.393-4.716v-2.0235a4.5913 4.5913 0 1 0-9.1826 0v2.0202a27.426 27.426 0 0 0-11.396 4.7193l-1.4299-1.4299a4.5904 4.5904 0 1 0-6.4901 6.4934l1.4299 1.4299a27.386 27.386 0 0 0-4.7224 11.396h-2.0204a4.5914 4.5914 0 0 0 0 9.1827h2.0235a27.345 27.345 0 0 0 4.7193 11.393l-1.4299 1.4298a4.5904 4.5904 0 1 0 6.4901 6.4934l1.4299-1.4299a27.426 27.426 0 0 0 11.396 4.7192zm-3.0147-16.456a14.861 14.861 0 0 1 11.253-27.168 14.701 14.701 0 0 1 3.9552 1.6415 14.883 14.883 0 0 1 6.8006 16.412 14.699 14.699 0 0 1-1.6415 3.9553 14.906 14.906 0 0 1-5.1591 5.1589 14.696 14.696 0 0 1-3.9552 1.6415 14.843 14.843 0 0 1-11.253-1.6415z"/></g></g></svg>
